<svg width="153" height="49" viewBox="0 0 153 49" fill="none" xmlns="http://www.w3.org/2000/svg">
<path d="M31.0498 17.4101C30.1329 16.4842 29.0408 15.75 27.8373 15.2504C26.6338 14.7508 25.3429 14.4957 24.0398 14.5001C18.5798 14.5001 14.1298 18.9501 14.1298 24.4101C14.1298 26.1601 14.5898 27.8601 15.4498 29.3601L14.0498 34.5001L19.2998 33.1201C20.7498 33.9101 22.3798 34.3301 24.0398 34.3301C29.4998 34.3301 33.9498 29.8801 33.9498 24.4201C33.9498 21.7701 32.9198 19.2801 31.0498 17.4101ZM24.0398 32.6501C22.5598 32.6501 21.1098 32.2501 19.8398 31.5001L19.5398 31.3201L16.4198 32.1401L17.2498 29.1001L17.0498 28.7901C16.2274 27.4771 15.7907 25.9593 15.7898 24.4101C15.7898 19.8701 19.4898 16.1701 24.0298 16.1701C26.2298 16.1701 28.2998 17.0301 29.8498 18.5901C30.6174 19.3539 31.2257 20.2626 31.6394 21.2634C32.0531 22.2642 32.264 23.3371 32.2598 24.4201C32.2798 28.9601 28.5798 32.6501 24.0398 32.6501ZM28.5598 26.4901C28.3098 26.3701 27.0898 25.7701 26.8698 25.6801C26.6398 25.6001 26.4798 25.5601 26.3098 25.8001C26.1398 26.0501 25.6698 26.6101 25.5298 26.7701C25.3898 26.9401 25.2398 26.9601 24.9898 26.8301C24.7398 26.7101 23.9398 26.4401 22.9998 25.6001C22.2598 24.9401 21.7698 24.1301 21.6198 23.8801C21.4798 23.6301 21.5998 23.5001 21.7298 23.3701C21.8398 23.2601 21.9798 23.0801 22.0998 22.9401C22.2198 22.8001 22.2698 22.6901 22.3498 22.5301C22.4298 22.3601 22.3898 22.2201 22.3298 22.1001C22.2698 21.9801 21.7698 20.7601 21.5698 20.2601C21.3698 19.7801 21.1598 19.8401 21.0098 19.8301H20.5298C20.3598 19.8301 20.0998 19.8901 19.8698 20.1401C19.6498 20.3901 19.0098 20.9901 19.0098 22.2101C19.0098 23.4301 19.8998 24.6101 20.0198 24.7701C20.1398 24.9401 21.7698 27.4401 24.2498 28.5101C24.8398 28.7701 25.2998 28.9201 25.6598 29.0301C26.2498 29.2201 26.7898 29.1901 27.2198 29.1301C27.6998 29.0601 28.6898 28.5301 28.8898 27.9501C29.0998 27.3701 29.0998 26.8801 29.0298 26.7701C28.9598 26.6601 28.8098 26.6101 28.5598 26.4901Z" fill="white"/>
<path d="M57.8203 18.7969L60.5391 27.3594L63.2578 18.7969H65.0938L61.4141 30H59.6562L56.9375 21.5234L54.2188 30H52.4531L48.7734 18.7969H50.6172L53.3359 27.3594L56.0547 18.7969H57.8203ZM76.2188 18.7969V30H74.4609V25.1172H68.9375V30H67.1797V18.7969H68.9375V23.5234H74.4609V18.7969H76.2188ZM78.1328 30L82.7734 18.7969H84.5312L89.1719 30H87.3359L86.1328 27.0391H81.1719L79.9688 30H78.1328ZM83.6562 20.7969L81.8125 25.4375H85.4922L83.6562 20.7969ZM88.8516 18.7969H97.3281V20.3984H93.9688V30H92.2109V20.3984H88.8516V18.7969ZM104.867 26.7969C104.867 26.4531 104.758 26.1719 104.539 25.9375C104.32 25.7031 104.031 25.5234 103.688 25.3906C103.344 25.2578 102.961 25.1406 102.539 25.0312C102.117 24.9219 101.695 24.7891 101.273 24.6328C100.852 24.4766 100.461 24.2891 100.117 24.0703C99.7734 23.8516 99.4922 23.5469 99.2734 23.1406C99.0547 22.7344 98.9453 22.25 98.9453 21.6797C98.9453 20.8203 99.2734 20.0938 99.9375 19.5156C100.594 18.9375 101.492 18.6406 102.625 18.6406C103.039 18.6406 103.438 18.6953 103.82 18.7969C104.203 18.8984 104.523 19.0156 104.773 19.1562C105.023 19.2969 105.25 19.4297 105.438 19.5703C105.625 19.7109 105.766 19.8281 105.859 19.9219L105.984 20.0781L104.867 21.2031C104.844 21.1875 104.812 21.1484 104.773 21.1016C104.734 21.0547 104.648 20.9766 104.508 20.8672C104.367 20.7578 104.219 20.6641 104.062 20.5781C103.906 20.4922 103.695 20.4141 103.438 20.3438C103.18 20.2812 102.906 20.2422 102.625 20.2422C102.047 20.2422 101.578 20.3906 101.227 20.6719C100.875 20.9609 100.703 21.2969 100.703 21.6797C100.703 22.0234 100.812 22.3125 101.031 22.5469C101.25 22.7812 101.531 22.9688 101.875 23.1016C102.219 23.2344 102.609 23.3516 103.031 23.4609C103.453 23.5703 103.875 23.6953 104.297 23.8516C104.719 24.0078 105.102 24.1953 105.445 24.4141C105.789 24.6328 106.078 24.9453 106.297 25.3516C106.516 25.7578 106.625 26.2422 106.625 26.8047C106.625 27.7891 106.266 28.6016 105.562 29.2266C104.852 29.8516 103.875 30.1641 102.625 30.1641C102.109 30.1641 101.625 30.1016 101.164 29.9766C100.703 29.8516 100.328 29.7109 100.031 29.5391C99.7344 29.3672 99.4766 29.1953 99.2578 29.0234C99.0391 28.8516 98.875 28.7109 98.7812 28.5938L98.625 28.3984L99.7422 27.2812C99.7578 27.3125 99.7969 27.3594 99.8438 27.4219C99.8906 27.4844 100.008 27.5859 100.18 27.7344C100.352 27.8828 100.547 28.0156 100.75 28.125C100.953 28.2344 101.219 28.3359 101.555 28.4297C101.891 28.5234 102.25 28.5625 102.625 28.5625C103.312 28.5625 103.859 28.3984 104.266 28.0547C104.664 27.7188 104.867 27.2969 104.867 26.7969ZM107.742 30L112.383 18.7969H114.141L118.781 30H116.945L115.742 27.0391H110.781L109.578 30H107.742ZM113.266 20.7969L111.422 25.4375H115.102L113.266 20.7969ZM120.711 18.7969L125.188 18.8047C126.25 18.8047 127.148 19.1484 127.867 19.8516C128.586 20.5547 128.953 21.4062 128.953 22.4062C128.953 23.4062 128.586 24.2578 127.867 24.9531C127.148 25.6562 126.25 26 125.188 26H122.469V30H120.711V18.7969ZM125.188 20.4062L122.469 20.3984V24.3984H125.188C125.734 24.3984 126.211 24.2109 126.602 23.8281C126.992 23.4453 127.188 22.9688 127.188 22.4062C127.188 21.8438 126.992 21.3672 126.602 20.9844C126.211 20.5938 125.734 20.4062 125.188 20.4062ZM131.508 18.7969L135.984 18.8047C137.047 18.8047 137.945 19.1484 138.664 19.8516C139.383 20.5547 139.75 21.4062 139.75 22.4062C139.75 23.4062 139.383 24.2578 138.664 24.9531C137.945 25.6562 137.047 26 135.984 26H133.266V30H131.508V18.7969ZM135.984 20.4062L133.266 20.3984V24.3984H135.984C136.531 24.3984 137.008 24.2109 137.398 23.8281C137.789 23.4453 137.984 22.9688 137.984 22.4062C137.984 21.8438 137.789 21.3672 137.398 20.9844C137.008 20.5938 136.531 20.4062 135.984 20.4062Z" fill="white"/>
</svg>
